<?xml version="1.0" encoding="iso-8859-1"?>
<!-- Generator: Adobe Illustrator 19.0.0, SVG Export Plug-In . SVG Version: 6.00 Build 0)  -->
<svg version="1.1" id="Capa_1" xmlns="http://www.w3.org/2000/svg" xmlns:xlink="http://www.w3.org/1999/xlink" x="0px" y="0px"
	 viewBox="0 0 480 480" style="enable-background:new 0 0 480 480;" xml:space="preserve">
<g>
	<g>
		<rect x="264" y="80" width="72" height="16"/>
	</g>
</g>
<g>
	<g>
		<rect x="264" y="128" width="72" height="16"/>
	</g>
</g>
<g>
	<g>
		<rect x="264" y="176" width="72" height="16"/>
	</g>
</g>
<g>
	<g>
		<rect x="264" y="224" width="72" height="16"/>
	</g>
</g>
<g>
	<g>
		<rect x="264" y="272" width="72" height="16"/>
	</g>
</g>
<g>
	<g>
		<rect x="264" y="320" width="72" height="16"/>
	</g>
</g>
<g>
	<g>
		<rect x="264" y="368" width="72" height="16"/>
	</g>
</g>
<g>
	<g>
		<rect x="264" y="416" width="72" height="16"/>
	</g>
</g>
<g>
	<g>
		<rect x="144" y="80" width="72" height="16"/>
	</g>
</g>
<g>
	<g>
		<rect x="144" y="128" width="72" height="16"/>
	</g>
</g>
<g>
	<g>
		<rect x="144" y="176" width="72" height="16"/>
	</g>
</g>
<g>
	<g>
		<rect x="144" y="224" width="72" height="16"/>
	</g>
</g>
<g>
	<g>
		<rect x="144" y="272" width="72" height="16"/>
	</g>
</g>
<g>
	<g>
		<rect x="144" y="320" width="72" height="16"/>
	</g>
</g>
<g>
	<g>
		<rect x="144" y="368" width="72" height="16"/>
	</g>
</g>
<g>
	<g>
		<rect x="144" y="416" width="72" height="16"/>
	</g>
</g>
<g>
	<g>
		<path d="M440,464v-41.416c15.364-6.481,24.979-21.938,24-38.584c0-22.056-14.352-40-32-40s-32,17.944-32,40
			c-0.979,16.646,8.636,32.103,24,38.584V464h-56V48h8c4.418,0,8-3.582,8-8V8c0-4.418-3.582-8-8-8H104c-4.418,0-8,3.582-8,8v32
			c0,4.418,3.582,8,8,8h8v416H56v-41.416c15.364-6.481,24.979-21.938,24-38.584c0-22.056-14.352-40-32-40s-32,17.944-32,40
			c-0.979,16.646,8.636,32.103,24,38.584V464H0v16h480v-16H440z M40,404.56c-5.373-5.467-8.265-12.9-8-20.56
			c0-13.008,7.328-24,16-24s16,10.992,16,24c0.259,7.659-2.632,15.09-8,20.56V392H40V404.56z M112,16h256v16H112V16z M232,464H128
			V48h104V464z M352,464H248V48h104V464z M424,404.56c-5.373-5.467-8.265-12.9-8-20.56c0-13.008,7.328-24,16-24s16,10.992,16,24
			c0.259,7.659-2.632,15.09-8,20.56V392h-16V404.56z"/>
	</g>
</g>
<g>
</g>
<g>
</g>
<g>
</g>
<g>
</g>
<g>
</g>
<g>
</g>
<g>
</g>
<g>
</g>
<g>
</g>
<g>
</g>
<g>
</g>
<g>
</g>
<g>
</g>
<g>
</g>
<g>
</g>
</svg>
