<svg height="512" viewBox="0 0 192 192" width="512" xmlns="http://www.w3.org/2000/svg" xmlns:xlink="http://www.w3.org/1999/xlink"><linearGradient id="New_Gradient_Swatch_1" gradientUnits="userSpaceOnUse" x1="79.037" x2="112.962" y1="40.963" y2="7.037"><stop offset="0" stop-color="#34cdfa"/><stop offset="1" stop-color="#e8d9f1"/></linearGradient><linearGradient id="New_Gradient_Swatch_1-2" x1="72.69" x2="119.31" xlink:href="#New_Gradient_Swatch_1" y1="100.004" y2="53.385"/><circle cx="96" cy="24" fill="url(#New_Gradient_Swatch_1)" r="24"/><path d="m104 48h-16a24.027 24.027 0 0 0 -24 24v16a8 8 0 0 0 8 8h48a8 8 0 0 0 8-8v-16a24.028 24.028 0 0 0 -24-24z" fill="url(#New_Gradient_Swatch_1-2)"/><circle cx="160" cy="120" fill="#ccf2fe" r="24"/><path d="m168 136a23.989 23.989 0 0 1 -20.487-36.487 23.994 23.994 0 1 0 32.974 32.974 23.853 23.853 0 0 1 -12.487 3.513z" fill="#99e6fd"/><path d="m168 144h-16a24.028 24.028 0 0 0 -24 24v16a8 8 0 0 0 8 8h48a8 8 0 0 0 8-8v-16a24.028 24.028 0 0 0 -24-24z" fill="#ccf2fe"/><path d="m144 184v-16a24.028 24.028 0 0 1 24-24h-16a24.028 24.028 0 0 0 -24 24v16a8 8 0 0 0 8 8h16a8 8 0 0 1 -8-8z" fill="#99e6fd"/><circle cx="32" cy="120" fill="#ccf2fe" r="24"/><path d="m40 136a23.989 23.989 0 0 1 -20.487-36.487 23.994 23.994 0 1 0 32.974 32.974 23.853 23.853 0 0 1 -12.487 3.513z" fill="#99e6fd"/><path d="m40 144h-16a24.028 24.028 0 0 0 -24 24v16a8 8 0 0 0 8 8h48a8 8 0 0 0 8-8v-16a24.028 24.028 0 0 0 -24-24z" fill="#ccf2fe"/><path d="m16 184v-16a24.028 24.028 0 0 1 24-24h-16a24.028 24.028 0 0 0 -24 24v16a8 8 0 0 0 8 8h16a8 8 0 0 1 -8-8z" fill="#99e6fd"/><path d="m124.438 145.344-20.438-13.625v-27.719h-16v27.719l-20.437 13.625 8.875 13.312 19.562-13.041 19.563 13.041z" fill="#34cdfa"/></svg>