<?xml version="1.0" encoding="iso-8859-1"?>
<!-- Generator: Adobe Illustrator 21.0.0, SVG Export Plug-In . SVG Version: 6.00 Build 0)  -->
<svg version="1.1" id="Capa_1" xmlns="http://www.w3.org/2000/svg" xmlns:xlink="http://www.w3.org/1999/xlink" x="0px" y="0px"
	 viewBox="0 0 512 512" style="enable-background:new 0 0 512 512;" xml:space="preserve">
<g>
	<path style="fill:#2C3E50;" d="M353.103,229.517h-88.276V105.931c0-4.875-3.952-8.828-8.828-8.828s-8.828,3.952-8.828,8.828
		v123.586h-79.448c-4.875,0-8.828,3.952-8.828,8.828c0,4.875,3.952,8.828,8.828,8.828h79.448v88.276
		c0,4.875,3.952,8.828,8.828,8.828s8.828-3.952,8.828-8.828v-88.276h88.276c4.875,0,8.828-3.952,8.828-8.828
		C361.931,233.469,357.979,229.517,353.103,229.517z"/>
	<path style="fill:#4482C3;" d="M312.391,475.162l-30.667-15.969c-4.013-2.15-6.502-6.349-6.462-10.902v-9.19
		c0.883-1.015,1.845-2.331,2.904-3.884c4.152-6.157,7.362-12.899,9.525-20.003c4.102-1.367,6.86-5.218,6.833-9.543v-13.383
		c-0.002-2.807-1.165-5.487-3.213-7.406v-19.341c0,0,3.814-30.093-35.31-30.093s-35.31,30.093-35.31,30.093v19.341
		c-2.048,1.919-3.211,4.6-3.213,7.406v13.383c-0.014,3.362,1.639,6.513,4.414,8.413c2.107,9.051,6.062,17.568,11.617,25.017v8.881
		c0.033,4.402-2.294,8.485-6.1,10.699l-28.61,16.243c-8.38,4.878-13.501,13.874-13.418,23.57v10.161
		c-0.034,1.81,1.403,3.307,3.213,3.346h134.815c1.81-0.039,3.248-1.535,3.213-3.346v-9.507
		C326.702,489.129,321.222,479.892,312.391,475.162z"/>
	<circle style="fill:#14A085;" cx="432.552" cy="238.345" r="79.448"/>
	<path style="fill:#2FA8CC;" d="M167.724,176.552V256H0v-79.448c0.029-9.739,7.917-17.626,17.655-17.655h132.414
		C159.808,158.926,167.695,166.813,167.724,176.552z"/>
	<g>
		<path style="fill:#67B9CC;" d="M42.937,185.379h-7.168c-4.875,0-8.828,3.952-8.828,8.828s3.952,8.828,8.828,8.828h7.168
			c4.875,0,8.828-3.952,8.828-8.828S47.813,185.379,42.937,185.379z"/>
		<path style="fill:#67B9CC;" d="M114.759,185.379h-35.31c-4.875,0-8.828,3.952-8.828,8.828s3.952,8.828,8.828,8.828h35.31
			c4.875,0,8.828-3.952,8.828-8.828S119.634,185.379,114.759,185.379z"/>
	</g>
	<path style="fill:#7D6599;" d="M123.586,326.621c-14.349-14.308-23.646-32.901-26.483-52.966H70.621
		c-2.837,20.064-12.134,38.658-26.483,52.966H123.586z"/>
	<g>
		<path style="fill:#3D324C;" d="M167.724,247.172v17.655c-0.029,9.739-7.917,17.626-17.655,17.655H17.655
			C7.917,282.454,0.029,274.566,0,264.828v-17.655H167.724z"/>
		<path style="fill:#3D324C;" d="M44.138,317.793h79.448c9.751,0,17.655,7.905,17.655,17.655l0,0
			c0,9.751-7.904,17.655-17.655,17.655H44.138c-9.751,0-17.655-7.905-17.655-17.655l0,0
			C26.483,325.698,34.387,317.793,44.138,317.793z"/>
	</g>
	<path style="fill:#F0C419;" d="M326.621,8.828v88.276c0,4.875-3.952,8.828-8.828,8.828H203.034V0h114.759
		C322.668,0,326.621,3.952,326.621,8.828z"/>
	<g>
		<path style="fill:#E57E25;" d="M291.31,26.483H256c-4.875,0-8.828,3.952-8.828,8.828s3.952,8.828,8.828,8.828h35.31
			c4.875,0,8.828-3.952,8.828-8.828S296.186,26.483,291.31,26.483z"/>
		<path style="fill:#E57E25;" d="M273.655,61.793H256c-4.875,0-8.828,3.952-8.828,8.828s3.952,8.828,8.828,8.828h17.655
			c4.875,0,8.828-3.952,8.828-8.828S278.531,61.793,273.655,61.793z"/>
		<path style="fill:#E57E25;" d="M220.69,0v105.931h-26.483c-4.875,0-8.828-3.952-8.828-8.828V8.828
			c0-4.875,3.952-8.828,8.828-8.828H220.69z"/>
	</g>
	<path style="fill:#ECF0F1;" d="M436.083,229.517h-7.062c-3.017-0.31-5.311-2.851-5.311-5.884s2.294-5.574,5.311-5.884h21.186
		c4.875,0,8.828-3.952,8.828-8.828s-3.952-8.828-8.828-8.828h-5.297v-5.888c0-4.875-3.952-8.828-8.828-8.828
		c-4.875,0-8.828,3.952-8.828,8.828v6.073c-12.356,1.235-21.62,11.867-21.153,24.276c0.467,12.409,10.505,22.314,22.918,22.616
		h7.062c3.017,0.31,5.311,2.851,5.311,5.884s-2.294,5.574-5.311,5.884h-21.186c-4.875,0-8.828,3.952-8.828,8.828
		s3.952,8.828,8.828,8.828h12.359v5.888c0,4.875,3.952,8.828,8.828,8.828c4.875,0,8.828-3.952,8.828-8.828v-7.706
		c8.619-3.772,14.17-12.308,14.124-21.716C459.182,240.228,448.915,229.696,436.083,229.517z"/>
</g>
<g>
</g>
<g>
</g>
<g>
</g>
<g>
</g>
<g>
</g>
<g>
</g>
<g>
</g>
<g>
</g>
<g>
</g>
<g>
</g>
<g>
</g>
<g>
</g>
<g>
</g>
<g>
</g>
<g>
</g>
</svg>
