<svg id="Capa_1" data-name="Capa 1" xmlns="http://www.w3.org/2000/svg" xmlns:xlink="http://www.w3.org/1999/xlink" viewBox="0 0 210 210"><defs><style>.cls-1,.cls-4{fill:none;}.cls-2{clip-path:url(#clip-path);}.cls-3{clip-path:url(#clip-path-2);}.cls-4{stroke:#e6e6e6;stroke-miterlimit:10;stroke-width:2px;}.cls-5{font-size:5.19px;font-family:MyriadPro-Regular, Myriad Pro;}.cls-5,.cls-6{fill:#5fa30f;}</style><clipPath id="clip-path"><rect class="cls-1" x="-1953" y="539" width="1921" height="535"/></clipPath><clipPath id="clip-path-2"><rect class="cls-1" x="-1952" y="-13" width="1920" height="1655"/></clipPath></defs><title>icon</title><g class="cls-2"><g class="cls-3"><image width="7360" height="4912" transform="translate(-2545.03 -13) scale(0.38 0.34)" xlink:href="../DESCARGAS/jeremy-vessey-311383-unsplash.jpg"/></g></g><circle class="cls-4" cx="105" cy="105" r="99"/><text class="cls-5" transform="translate(152.01 49.6)">MR</text><path class="cls-6" d="M150.79,47.73a4.7,4.7,0,1,0,4.7-4.7,4.69,4.69,0,0,0-4.7,4.7m-.45,0a5.16,5.16,0,1,1,5.15,5.16,5.14,5.14,0,0,1-5.15-5.16"/><path class="cls-6" d="M150.17,130.62H104.35V99.31c16.15,0,30.52.09,45.77.09,0,16.74,0,18.17,0,31.22m.24-53.2s-2.77,19.6-23.3,19.37c0,0-16.39.7-23.77-18.18,0,0-2.53,17-24.45,19.35v31.87H55.81V51H86.27s12.45,1.41,17.07,17.23c0,0,2.08-14.16,22.15-18.64H54.65v82.61h96.69V76.72Z"/><path class="cls-6" d="M59.8,157.22h5.08l-2.56-7Zm6.82,4.72-.81-2.13H58.9L58.09,162a8,8,0,0,1-.81,1.72,1.31,1.31,0,0,1-1.11.44,1.58,1.58,0,0,1-1.14-.47,1.44,1.44,0,0,1-.5-1.08,2.68,2.68,0,0,1,.11-.72c.08-.24.21-.59.39-1l4.34-11,.45-1.14a5.2,5.2,0,0,1,.56-1.11,2.2,2.2,0,0,1,.77-.71,2.69,2.69,0,0,1,2.39,0,2.17,2.17,0,0,1,.77.7,4.3,4.3,0,0,1,.5.92c.14.33.31.77.52,1.31l4.44,11a5.47,5.47,0,0,1,.52,1.82,1.5,1.5,0,0,1-.49,1.08,1.62,1.62,0,0,1-1.19.49,1.42,1.42,0,0,1-1.18-.53,4.13,4.13,0,0,1-.43-.77l-.38-.91"/><path class="cls-6" d="M77.07,164.15a1.8,1.8,0,0,1-1.24-.46,1.76,1.76,0,0,1,1.2-3,1.7,1.7,0,0,1,1.25.5,1.77,1.77,0,0,1,0,2.51,1.71,1.71,0,0,1-1.21.47"/><path class="cls-6" d="M90.73,161.3,88,150.48l-1.94,11.73a2.14,2.14,0,0,1-.44,1.46,1.47,1.47,0,0,1-1.15.48,1.52,1.52,0,0,1-1.14-.47,2.13,2.13,0,0,1-.44-1.47l1.94-13.45a1.7,1.7,0,0,1,.58-1.5,2.79,2.79,0,0,1,1.57-.39h1.06a3.93,3.93,0,0,1,1.4.18,1.19,1.19,0,0,1,.65.62,12.11,12.11,0,0,1,.47,1.48l2.47,9.3,2.47-9.3a10.56,10.56,0,0,1,.47-1.48,1.13,1.13,0,0,1,.65-.62,3.9,3.9,0,0,1,1.39-.18h1.07a2.73,2.73,0,0,1,1.56.39,1.68,1.68,0,0,1,.58,1.5l2,13.45a2.14,2.14,0,0,1-.44,1.46,1.49,1.49,0,0,1-1.16.48,1.46,1.46,0,0,1-1.13-.48,2.14,2.14,0,0,1-.44-1.46l-1.94-11.73L95.34,161.3c-.17.71-.32,1.22-.43,1.55a2.12,2.12,0,0,1-.62.9,1.81,1.81,0,0,1-1.25.4,1.84,1.84,0,0,1-1-.26,1.79,1.79,0,0,1-.65-.66,3.62,3.62,0,0,1-.37-.9c-.09-.33-.17-.67-.27-1"/><path class="cls-6" d="M109,164.15a1.8,1.8,0,0,1-1.24-.46,1.64,1.64,0,0,1-.52-1.3,1.71,1.71,0,0,1,1.72-1.72,1.7,1.7,0,0,1,1.25.5,1.77,1.77,0,0,1,0,2.51,1.71,1.71,0,0,1-1.21.47"/><path class="cls-6" d="M122.71,149.46h-2.32v5.19h2.32a6.89,6.89,0,0,0,2-.25,2.4,2.4,0,0,0,1.25-.84,2.53,2.53,0,0,0,.43-1.52,2.59,2.59,0,0,0-.67-1.83c-.49-.5-1.51-.75-3-.75m.83,7.79h-3.15v4.81a2.2,2.2,0,0,1-.49,1.56,1.58,1.58,0,0,1-1.23.53,1.6,1.6,0,0,1-1.25-.52,2.23,2.23,0,0,1-.48-1.55V149a2.13,2.13,0,0,1,.53-1.62,2.37,2.37,0,0,1,1.65-.49h4.42a11.06,11.06,0,0,1,3,.31,4.45,4.45,0,0,1,1.81,1,4.35,4.35,0,0,1,1.15,1.64,5.85,5.85,0,0,1,.39,2.19,4.84,4.84,0,0,1-1.6,3.94,7.26,7.26,0,0,1-4.76,1.34"/><path class="cls-6" d="M133.47,164.15a1.8,1.8,0,0,1-1.24-.46,1.64,1.64,0,0,1-.52-1.3,1.68,1.68,0,0,1,.5-1.21,1.64,1.64,0,0,1,1.23-.51,1.67,1.67,0,0,1,1.24.5,1.77,1.77,0,0,1,0,2.51,1.71,1.71,0,0,1-1.21.47"/><path class="cls-6" d="M141.53,162.06V148.67a2.22,2.22,0,0,1,.48-1.56,1.6,1.6,0,0,1,1.23-.53,1.66,1.66,0,0,1,1.26.52,2.23,2.23,0,0,1,.48,1.57v13.39a2.23,2.23,0,0,1-.48,1.57,1.62,1.62,0,0,1-1.26.52,1.58,1.58,0,0,1-1.22-.52,2.25,2.25,0,0,1-.49-1.57"/><path class="cls-6" d="M153.08,164.15a1.78,1.78,0,0,1-1.24-.46,1.64,1.64,0,0,1-.53-1.3,1.68,1.68,0,0,1,.5-1.21,1.66,1.66,0,0,1,1.23-.51,1.71,1.71,0,0,1,1.25.5,1.8,1.8,0,0,1,0,2.51,1.72,1.72,0,0,1-1.21.47"/></svg>