<?xml version="1.0" encoding="iso-8859-1"?>
<!-- Generator: Adobe Illustrator 19.0.0, SVG Export Plug-In . SVG Version: 6.00 Build 0)  -->
<svg version="1.1" id="Capa_1" xmlns="http://www.w3.org/2000/svg" xmlns:xlink="http://www.w3.org/1999/xlink" x="0px" y="0px"
	 viewBox="0 0 479.608 479.608" style="enable-background:new 0 0 479.608 479.608;" xml:space="preserve">
<path style="fill:#1185E0;" d="M463.935,439.38H80.457V55.902c0-8.882,6.792-15.673,15.673-15.673h125.388
	c8.882,0,15.673,6.792,15.673,15.673v22.465h-15.673c-27.69,0-50.678,22.988-50.678,50.678v27.69
	c0,8.882,6.792,15.673,15.673,15.673h132.18c8.359,0,15.673-6.792,15.673-15.151l0.522-28.212c0-27.69-22.988-50.678-50.678-50.678
	h-15.673V55.902c0-26.122-20.898-47.02-47.02-47.02H96.131c-26.122,0-47.02,20.898-47.02,47.02V439.38H15.673
	C6.792,439.38,0,446.171,0,455.053c0,8.882,6.792,15.673,15.673,15.673h448.261c8.882,0,15.673-6.792,15.673-15.673
	C479.608,446.171,472.816,439.38,463.935,439.38z M303.543,128.522v12.539H202.188v-12.016c0-10.449,8.882-19.331,19.331-19.331
	h62.694C294.661,109.714,303.543,118.596,303.543,128.522z"/>
<g>
	<path style="fill:#4DCFE0;" d="M252.865,253.91c-8.882,0-15.673-6.792-15.673-15.673v-27.167c0-8.882,6.792-15.673,15.673-15.673
		c8.882,0,15.673,6.792,15.673,15.673v27.167C268.539,247.118,261.747,253.91,252.865,253.91z"/>
	<path style="fill:#4DCFE0;" d="M315.559,253.91c-8.882,0-15.673-6.792-15.673-15.673v-27.167c0-8.882,6.792-15.673,15.673-15.673
		s15.673,6.792,15.673,15.673v27.167C331.233,247.118,324.441,253.91,315.559,253.91z"/>
	<path style="fill:#4DCFE0;" d="M189.649,253.91c-8.882,0-15.673-6.792-15.673-15.673v-27.167c0-8.882,6.792-15.673,15.673-15.673
		s15.673,6.792,15.673,15.673v27.167C205.322,247.118,198.531,253.91,189.649,253.91z"/>
	<path style="fill:#4DCFE0;" d="M252.865,347.951c-8.882,0-15.673-6.792-15.673-15.673V305.11c0-8.882,6.792-15.673,15.673-15.673
		c8.882,0,15.673,6.792,15.673,15.673v27.167C268.539,341.159,261.747,347.951,252.865,347.951z"/>
	<path style="fill:#4DCFE0;" d="M315.559,347.951c-8.882,0-15.673-6.792-15.673-15.673V305.11c0-8.882,6.792-15.673,15.673-15.673
		s15.673,6.792,15.673,15.673v27.167C331.233,341.159,324.441,347.951,315.559,347.951z"/>
	<path style="fill:#4DCFE0;" d="M189.649,347.951c-8.882,0-15.673-6.792-15.673-15.673V305.11c0-8.882,6.792-15.673,15.673-15.673
		s15.673,6.792,15.673,15.673v27.167C205.322,341.159,198.531,347.951,189.649,347.951z"/>
</g>
<g>
</g>
<g>
</g>
<g>
</g>
<g>
</g>
<g>
</g>
<g>
</g>
<g>
</g>
<g>
</g>
<g>
</g>
<g>
</g>
<g>
</g>
<g>
</g>
<g>
</g>
<g>
</g>
<g>
</g>
</svg>
