<?xml version="1.0" encoding="iso-8859-1"?>
<!-- Generator: Adobe Illustrator 19.0.0, SVG Export Plug-In . SVG Version: 6.00 Build 0)  -->
<svg version="1.1" id="Capa_1" xmlns="http://www.w3.org/2000/svg" xmlns:xlink="http://www.w3.org/1999/xlink" x="0px" y="0px"
	 viewBox="0 0 433.633 433.633" style="enable-background:new 0 0 433.633 433.633;" xml:space="preserve">
<path style="fill:#1185E0;" d="M433.11,282.645l-1.567-5.225l0,0l0,0l-39.706-128.522V36.571c0-8.882-6.792-15.673-15.673-15.673
	H57.469c-8.882,0-15.673,6.792-15.673,15.673v112.327L2.09,277.42l0,0l0,0l-1.567,5.225C0,284.212,0,285.78,0,287.347v73.143v52.245
	h31.347v-36.571h370.939v36.571h31.347V360.49v-73.143C433.633,285.78,433.633,284.212,433.11,282.645z M68.963,167.184h56.424
	v-31.347H73.143V52.245H360.49v83.592h-52.245v31.347h56.424l30.824,99.265H38.661L68.963,167.184z M31.347,297.796h370.939v47.02
	H31.347V297.796z"/>
<path style="fill:#4DCFE0;" d="M308.245,88.816H125.388c-8.882,0-15.673,6.792-15.673,15.673v83.592
	c0,8.882,6.792,15.673,15.673,15.673h182.857c8.882,0,15.673-6.792,15.673-15.673V104.49
	C323.918,95.608,317.126,88.816,308.245,88.816z M141.061,120.163h60.082v52.245h-60.082V120.163z M292.571,172.408H232.49v-52.245
	h60.082V172.408z"/>
<g>
</g>
<g>
</g>
<g>
</g>
<g>
</g>
<g>
</g>
<g>
</g>
<g>
</g>
<g>
</g>
<g>
</g>
<g>
</g>
<g>
</g>
<g>
</g>
<g>
</g>
<g>
</g>
<g>
</g>
</svg>
