<?xml version="1.0" encoding="iso-8859-1"?>
<!-- Generator: Adobe Illustrator 19.0.0, SVG Export Plug-In . SVG Version: 6.00 Build 0)  -->
<svg version="1.1" id="Capa_1" xmlns="http://www.w3.org/2000/svg" xmlns:xlink="http://www.w3.org/1999/xlink" x="0px" y="0px"
	 viewBox="0 0 490.58 490.58" style="enable-background:new 0 0 490.58 490.58;" xml:space="preserve">
<path style="fill:#4DCFE0;" d="M259.657,309.029h-27.69c-8.882,0-15.673-6.792-15.673-15.673c0-8.882,6.792-15.673,15.673-15.673
	h27.69c8.882,0,15.673,6.792,15.673,15.673C275.331,302.237,268.539,309.029,259.657,309.029z"/>
<g>
	<path style="fill:#1185E0;" d="M485.355,222.824l-87.249-81.502c-3.135-2.612-6.792-4.18-10.449-4.18H209.502
		c-4.18,0-8.359,1.567-11.494,5.225l-72.62,77.322l-86.204,15.151C16.718,238.498,0,258.351,0,281.339v61.649
		c0,8.882,6.792,15.673,15.673,15.673h29.78c7.837,24.033,30.824,41.273,57.469,41.273s49.11-17.241,57.469-41.273h175.543
		c7.837,24.033,30.824,41.273,57.469,41.273c26.645,0,49.11-17.241,57.469-41.273h24.033c8.882,0,15.673-6.792,15.673-15.673
		V234.318C490.58,230.139,489.012,225.959,485.355,222.824z M381.388,168.49l53.812,50.155h-54.335l-23.51-50.155L381.388,168.49
		L381.388,168.49z M288.914,168.49h33.959l23.51,50.155h-57.469V168.49z M216.294,168.49h41.273v50.155h-88.294L216.294,168.49z
		 M102.922,368.588c-16.196,0-29.257-13.061-29.257-29.257c0-16.196,13.061-29.257,29.257-29.257s29.257,13.061,29.257,29.257
		C132.18,355.526,119.118,368.588,102.922,368.588z M393.404,368.588c-16.196,0-29.257-13.061-29.257-29.257
		c0-16.196,13.061-29.257,29.257-29.257c16.196,0,29.257,13.061,29.257,29.257C422.661,355.526,409.6,368.588,393.404,368.588z
		 M459.233,327.314h-6.269c-5.747-27.69-30.302-48.588-59.559-48.588s-53.812,20.898-59.559,48.588H162.482
		c-5.747-27.69-30.302-48.588-59.559-48.588s-53.812,20.898-59.559,48.588H31.347v-45.975c0-7.837,5.747-14.106,13.061-15.151
		l89.861-16.196h324.963V327.314z"/>
	<rect x="234.58" y="106.318" style="fill:#1185E0;" width="31.347" height="46.498"/>
	<rect x="336.98" y="106.318" style="fill:#1185E0;" width="31.347" height="46.498"/>
</g>
<path style="fill:#4DCFE0;" d="M394.971,121.992H207.935c-8.882,0-15.673-6.792-15.673-15.673s6.792-15.673,15.673-15.673h187.037
	c8.882,0,15.673,6.792,15.673,15.673S403.853,121.992,394.971,121.992z"/>
<g>
</g>
<g>
</g>
<g>
</g>
<g>
</g>
<g>
</g>
<g>
</g>
<g>
</g>
<g>
</g>
<g>
</g>
<g>
</g>
<g>
</g>
<g>
</g>
<g>
</g>
<g>
</g>
<g>
</g>
</svg>
